<?xml version="1.0" standalone="no"?>
<!DOCTYPE svg PUBLIC "-//W3C//DTD SVG 20010904//EN"
 "http://www.w3.org/TR/2001/REC-SVG-20010904/DTD/svg10.dtd">
<svg version="1.0" xmlns="http://www.w3.org/2000/svg"
 width="644.000000pt" height="644.000000pt" viewBox="0 0 644.000000 644.000000"
 preserveAspectRatio="xMidYMid meet">
<metadata>
Created by potrace 1.14, written by Peter Selinger 2001-2017
</metadata>
<g transform="translate(0.000000,644.000000) scale(0.100000,-0.100000)"
fill="#000000" stroke="none">
<path d="M3175 6045 c-31 -17 -60 -50 -126 -145 -25 -36 -74 -105 -109 -155
-35 -49 -76 -108 -92 -130 -15 -22 -73 -103 -128 -180 -55 -77 -105 -148 -112
-159 -7 -10 -22 -30 -32 -43 -23 -31 -117 -163 -152 -217 -15 -22 -31 -44 -36
-50 -10 -13 -119 -165 -168 -237 -19 -28 -40 -56 -46 -62 -6 -7 -19 -25 -29
-41 l-19 -29 101 -96 c88 -84 265 -252 413 -391 146 -138 317 -300 351 -332
l38 -37 -47 -27 c-26 -15 -63 -37 -82 -49 -19 -12 -97 -58 -174 -100 l-138
-78 -36 19 c-20 10 -120 67 -221 127 -101 59 -188 107 -192 107 -5 0 -9 5 -9
12 0 6 -3 8 -6 5 -4 -4 -19 2 -33 12 -14 10 -46 30 -71 44 -25 14 -202 116
-395 228 l-350 202 -70 1 c-38 0 -81 -3 -94 -7 -13 -3 -49 -14 -80 -23 -31 -9
-63 -18 -71 -20 -18 -4 -272 -71 -320 -85 -19 -5 -46 -12 -60 -15 -14 -2 -38
-9 -55 -14 -33 -10 -290 -80 -316 -85 -43 -9 -94 -39 -125 -72 -66 -75 -73
-144 -27 -313 17 -63 39 -142 48 -175 9 -33 18 -67 20 -75 23 -89 59 -225 71
-265 9 -27 17 -59 19 -70 3 -11 14 -54 25 -95 12 -41 25 -91 30 -110 5 -19 19
-71 30 -115 12 -44 30 -111 40 -150 10 -38 48 -180 85 -315 36 -135 82 -303
101 -375 19 -71 42 -154 50 -184 8 -30 16 -62 18 -70 2 -9 6 -23 9 -31 4 -13
19 -67 32 -122 8 -35 38 -80 79 -121 59 -57 64 -61 130 -86 l57 -21 2345 2
c2071 3 2346 5 2354 18 5 8 10 11 10 6 0 -4 11 -1 25 8 14 9 25 14 25 11 0 -6
35 22 71 57 34 34 77 105 83 138 2 14 5 25 6 25 1 0 3 8 5 17 2 9 8 32 14 50
8 26 68 249 86 318 19 76 27 107 50 190 15 52 28 103 30 112 2 9 13 51 25 93
12 42 23 85 25 95 5 26 45 172 52 190 3 8 7 22 8 30 1 8 19 76 39 150 50 181
47 173 51 190 1 8 5 22 8 30 4 8 11 33 16 55 5 22 24 92 41 155 17 63 32 122
34 130 3 8 18 65 34 125 17 61 33 126 37 145 4 19 10 40 13 45 4 6 7 15 8 20
1 6 7 28 13 50 40 150 -19 260 -164 305 -113 35 -134 41 -158 45 -12 3 -69 18
-127 34 -96 26 -148 40 -175 47 -52 12 -165 44 -186 52 -15 6 -30 8 -33 5 -3
-3 -11 -1 -18 4 -7 6 -20 11 -28 11 -8 0 -64 14 -125 31 -137 38 -180 39 -253
4 -31 -14 -59 -29 -62 -32 -3 -3 -14 -11 -25 -17 -86 -46 -111 -60 -115 -64
-5 -5 -25 -17 -99 -57 -25 -14 -53 -32 -62 -39 -8 -8 -19 -14 -23 -14 -4 0
-45 -22 -92 -50 -47 -27 -89 -50 -94 -50 -6 0 -10 -4 -10 -8 0 -4 -15 -15 -32
-23 -18 -9 -174 -97 -347 -197 -173 -100 -319 -182 -324 -182 -5 0 -73 37
-151 82 -77 44 -157 90 -176 101 -19 11 -47 28 -62 38 -14 11 -31 19 -37 19
-27 0 -4 27 135 157 23 21 108 102 190 180 82 77 167 158 189 178 22 21 103
98 180 171 77 73 152 143 166 156 l26 23 -55 80 c-31 44 -58 82 -62 85 -3 3
-9 13 -15 22 -17 28 -209 299 -222 313 -7 8 -13 18 -13 23 0 6 -4 12 -8 14 -4
2 -34 41 -67 88 -33 47 -63 90 -67 95 -47 61 -78 107 -78 114 0 5 -4 11 -8 13
-5 2 -30 34 -56 71 -82 119 -120 171 -138 191 -10 11 -18 23 -18 28 0 4 -7 16
-15 25 -8 10 -36 48 -62 85 -26 37 -66 93 -88 123 -60 85 -116 111 -170 80z"/>
<path d="M736 883 c-13 -7 -28 -25 -34 -40 -14 -35 -15 -368 -1 -403 21 -55
-135 -52 2463 -51 1326 0 2439 0 2473 1 50 0 67 4 89 24 l28 23 -1 202 0 202
-26 27 -27 26 -2470 1 c-1914 0 -2476 -3 -2494 -12z"/>
</g>
</svg>
