<svg width="98" height="86" viewBox="0 0 98 86" fill="none" xmlns="http://www.w3.org/2000/svg">
<path d="M10.1487 79.5997C10.1487 78.8933 10.7214 78.3206 11.4278 78.3206H85.6166C86.3231 78.3206 86.8957 78.8933 86.8957 79.5997V84.7162C86.8957 85.4226 86.3231 85.9953 85.6166 85.9953H11.4278C10.7214 85.9953 10.1487 85.4226 10.1487 84.7162V79.5997Z" fill="black"/>
<path d="M32.3743 21.4695L46.8877 1.02404L46.8891 1.0249C47.3754 0.367915 47.9201 0 48.4952 0C49.0805 0 49.6342 0.380997 50.1269 1.0599L50.1278 1.05938L64.5824 21.422H64.5818C64.7178 21.6164 64.7888 21.8166 64.7888 22.0212C64.7888 22.3292 64.6278 22.6274 64.3264 22.9105L51.4039 35.1464L56.8467 38.2887V38.2872C57.2287 38.5118 57.674 38.6407 58.1493 38.6407C58.6022 38.6407 59.0278 38.5237 59.3975 38.3182L77.608 27.8044C77.8323 27.686 78.0733 27.5906 78.3286 27.5222C78.8756 27.3756 79.427 27.3692 79.9449 27.4807L94.5587 31.3965C96.3303 31.9074 97.3834 33.7276 96.9456 35.5182L96.9056 35.6676L96.9026 35.6778L87.7462 69.851C87.0126 71.852 85.1017 73.2041 82.943 73.2041H14.1071C11.9291 73.2041 10.0033 71.8277 9.28454 69.7971L0.0961238 35.5054C-0.334414 33.7186 0.719742 31.9049 2.48954 31.3956L2.61446 31.3621L2.62178 31.3603L2.63716 31.3565L2.63703 31.3561L17.0511 27.4938C17.2997 27.4368 17.5586 27.4067 17.8245 27.4067C18.3954 27.4067 18.9338 27.5454 19.408 27.791L37.7446 38.3776C38.0869 38.5461 38.4721 38.6407 38.8794 38.6407C39.2918 38.6407 39.6815 38.5437 40.027 38.3713L45.5964 35.1558L32.5941 22.8444C32.3362 22.5812 32.1992 22.3053 32.1992 22.0212C32.1992 21.8332 32.2591 21.6489 32.3743 21.4695Z" fill="black"/>
<path d="M78.7309 27.1554L78.7306 27.1554L78.7305 27.1556L78.7309 27.1554Z" fill="black"/>
<path d="M18.3088 27.1564L18.3076 27.1567L18.308 27.1559L18.3088 27.1564Z" fill="black"/>
<path d="M32.8535 43.8359C32.8535 43.4788 32.913 43.2557 33.0321 43.1664C33.1511 43.0474 33.3445 42.9879 33.6123 42.9879C33.9694 42.9879 34.2223 43.1069 34.3711 43.3449C34.5496 43.583 34.6984 43.8805 34.8174 44.2376C34.8174 44.5947 34.8025 45.1452 34.7728 45.8891C34.7728 46.633 34.7728 47.481 34.7728 48.4332C34.7728 49.3557 34.7728 50.3376 34.7728 51.3791C34.7728 52.4205 34.7728 53.4174 34.7728 54.3696C34.7728 55.3218 34.7728 56.1847 34.7728 56.9584C34.8025 57.7023 34.8174 58.2528 34.8174 58.6098C34.8174 58.7586 34.8323 59.0562 34.8621 59.5025C34.8918 59.9488 34.9216 60.4249 34.9513 60.9308C34.9811 61.4069 35.0108 61.8681 35.0406 62.3145C35.1001 62.7608 35.1447 63.0732 35.1745 63.2518C35.2043 63.341 35.2638 63.4898 35.353 63.6981C35.4721 63.9064 35.5613 64.0254 35.6208 64.0552C35.6208 64.085 35.6357 64.0998 35.6655 64.0998H35.7547C35.9333 64.0998 36.2308 63.7576 36.6474 63.0732C37.0938 62.3889 37.5847 61.511 38.1204 60.4398C38.6857 59.3686 39.2957 58.1784 39.9504 56.8691C40.6347 55.5598 41.3043 54.2654 41.9589 52.9859C42.6433 51.7064 43.2979 50.531 43.9228 49.4598C44.5774 48.3886 45.1726 47.5405 45.7082 46.9157C45.7379 46.9157 45.7677 46.9157 45.7974 46.9157C45.8569 46.9157 45.9016 46.9157 45.9313 46.9157C46.1991 46.9157 46.3628 47.0347 46.4223 47.2727C46.4818 47.481 46.5116 47.7042 46.5116 47.9423C46.5116 48.6862 46.3033 49.4449 45.8867 50.2186C45.4701 50.9923 45.0089 51.8403 44.503 52.7627C44.0269 53.6852 43.5806 54.6671 43.164 55.7086C42.7474 56.7501 42.5391 57.9106 42.5391 59.1901C42.5391 59.2793 42.5391 59.4281 42.5391 59.6364C42.5391 59.8149 42.5391 60.0232 42.5391 60.2613C42.5689 60.4993 42.5838 60.7225 42.5838 60.9308C42.5838 61.1391 42.5838 61.2879 42.5838 61.3771C42.7921 62.121 43.2087 62.731 43.8335 63.2071C44.4882 63.6832 45.2321 64.0552 46.0652 64.323C46.8984 64.5908 47.7762 64.7842 48.6987 64.9032C49.6509 65.0223 50.5138 65.1115 51.2874 65.1711C52.0611 65.2306 52.7009 65.305 53.2067 65.3942C53.7126 65.4835 53.9655 65.6174 53.9655 65.7959C53.9655 65.8852 53.9506 65.9596 53.9209 66.0191C53.2067 66.2869 52.5223 66.4208 51.8677 66.4208C51.2131 66.4208 50.5287 66.4208 49.8145 66.4208C48.2374 66.4208 46.943 66.3315 45.9313 66.153C44.9494 65.9745 44.1162 65.6471 43.4318 65.1711C42.7772 64.6652 42.2118 63.9808 41.7357 63.1179C41.2596 62.2549 40.7686 61.1391 40.2628 59.7703C39.9057 59.9786 39.6082 60.3059 39.3701 60.7523C39.1321 61.1986 38.9089 61.7045 38.7006 62.2698C38.5221 62.8054 38.3435 63.3708 38.165 63.9659C38.0162 64.5611 37.8228 65.0967 37.5847 65.5728C37.3467 66.0489 37.0491 66.4506 36.6921 66.7779C36.335 67.0754 35.9035 67.2242 35.3977 67.2242C34.9216 67.2242 34.5347 66.9862 34.2372 66.5101C33.9396 66.034 33.7164 65.4984 33.5677 64.9032C33.4189 64.2784 33.3147 63.6981 33.2552 63.1625C33.2255 62.5971 33.2106 62.2401 33.2106 62.0913L32.8535 43.8359Z" fill="white"/>
<path d="M45.7549 62.4178C46.3619 63.1007 46.9943 63.733 47.6519 64.3148C48.3095 64.8712 49.005 65.3644 49.7385 65.7944C50.472 66.1991 51.2434 66.5152 52.0528 66.7429C52.8875 66.9705 53.7601 67.0843 54.6706 67.0843C55.8088 67.0843 56.9469 66.882 58.0851 66.4773C59.2233 66.0473 60.2476 65.4656 61.1582 64.7321C62.094 63.9733 62.8528 63.0754 63.4345 62.0384C64.0163 61.0014 64.3071 59.8759 64.3071 58.6618C64.3071 57.9789 64.1427 57.3846 63.8139 56.8787C63.4851 56.3476 63.0551 55.9049 62.524 55.5508C62.0181 55.1967 61.4364 54.9312 60.7788 54.7541C60.1465 54.5518 59.5142 54.4506 58.8818 54.4506C58.553 54.4506 58.1357 54.5012 57.6299 54.6024C57.1493 54.6782 56.6308 54.7921 56.0743 54.9438C55.5179 55.0703 54.9488 55.2347 54.3671 55.437C53.7854 55.6141 53.2416 55.8164 52.7357 56.0441C52.2299 56.2717 51.7999 56.512 51.4458 56.7649C51.0917 56.9925 50.8388 57.2202 50.687 57.4478C50.687 57.5743 50.6617 57.7893 50.6111 58.0928C50.5858 58.3963 50.5479 58.7377 50.4973 59.1171C50.472 59.4712 50.4467 59.8127 50.4214 60.1415C50.3961 60.445 50.3708 60.66 50.3455 60.7864C50.3455 60.9382 50.3203 61.1279 50.2697 61.3555C50.2191 61.5579 50.1559 61.7729 50.08 62.0005C50.0294 62.2028 49.9409 62.4052 49.8144 62.6075C49.7132 62.8099 49.5741 62.9743 49.3971 63.1007C49.043 62.949 48.79 62.7087 48.6383 62.3799C48.4865 62.0258 48.3854 61.6464 48.3348 61.2417C48.3095 60.8117 48.3095 60.3944 48.3348 59.9897C48.3601 59.5597 48.3727 59.2056 48.3727 58.9274C48.3727 58.6745 48.3727 58.2572 48.3727 57.6754C48.398 57.0937 48.4233 56.4108 48.4486 55.6267C48.4992 54.8427 48.5624 53.9953 48.6383 53.0848C48.7395 52.149 48.8659 51.2258 49.0177 50.3153C49.1694 49.3794 49.3591 48.4942 49.5868 47.6595C49.8144 46.7996 50.0926 46.0408 50.4214 45.3832C50.7502 44.7003 51.1296 44.1691 51.5596 43.7897C52.0149 43.3851 52.5207 43.1827 53.0772 43.1827C53.7348 43.1827 54.3165 43.3345 54.8224 43.638C55.3535 43.9415 55.7961 44.3335 56.1502 44.8141C56.5296 45.2694 56.8205 45.8005 57.0228 46.4075C57.2505 46.9893 57.3643 47.5836 57.3643 48.1907C57.3643 48.6712 57.2758 49.1391 57.0987 49.5944C56.9217 50.0244 56.732 50.4417 56.5296 50.8464C56.3526 51.2511 56.1755 51.6558 55.9985 52.0605C55.8214 52.4651 55.7329 52.8825 55.7329 53.3124C56.3399 53.3124 57.0228 53.3251 57.7816 53.3504C58.5404 53.3757 59.3118 53.4389 60.0959 53.5401C60.88 53.6412 61.6387 53.8183 62.3722 54.0712C63.131 54.2989 63.8013 54.6277 64.383 55.0576C64.9647 55.4623 65.42 55.9808 65.7488 56.6131C66.1029 57.2455 66.28 58.0169 66.28 58.9274C66.28 59.838 66.1156 60.7106 65.7868 61.5452C65.4579 62.3546 65.0027 63.1134 64.4209 63.8216C63.8645 64.5298 63.2069 65.1621 62.4481 65.7185C61.7146 66.275 60.9179 66.7555 60.058 67.1602C59.2233 67.5649 58.3633 67.881 57.4781 68.1087C56.6181 68.311 55.7835 68.4122 54.9741 68.4122C54.5441 68.4122 54.0003 68.349 53.3427 68.2225C52.7104 68.0707 52.0528 67.881 51.3699 67.6534C50.687 67.4005 50.0041 67.097 49.3212 66.7429C48.6636 66.3635 48.0692 65.9714 47.5381 65.5668C47.0069 65.1368 46.5769 64.6689 46.2481 64.163C45.9193 63.6572 45.7549 63.126 45.7549 62.5696V62.4178ZM53.5324 44.852C53.2036 44.852 52.9128 45.0164 52.6598 45.3452C52.4069 45.674 52.1793 46.104 51.9769 46.6352C51.7999 47.141 51.6481 47.7101 51.5217 48.3424C51.4205 48.9494 51.3193 49.5565 51.2181 50.1635C51.1423 50.7452 51.0917 51.2764 51.0664 51.7569C51.0411 52.2375 51.0285 52.5916 51.0285 52.8192C51.0285 52.8951 51.0285 53.0342 51.0285 53.2366C51.0285 53.4136 51.0285 53.6033 51.0285 53.8056C51.0285 54.008 51.0285 54.2103 51.0285 54.4127C51.0285 54.5897 51.0285 54.7162 51.0285 54.7921C51.6355 54.3874 52.2172 53.9448 52.7736 53.4642C53.3301 52.9836 53.8233 52.4778 54.2533 51.9466C54.7085 51.3902 55.0626 50.7958 55.3156 50.1635C55.5938 49.5059 55.7329 48.785 55.7329 48.001C55.7329 47.6469 55.695 47.2801 55.6191 46.9007C55.5432 46.5213 55.4167 46.1799 55.2397 45.8764C55.0879 45.5729 54.8603 45.3326 54.5568 45.1555C54.2786 44.9532 53.9371 44.852 53.5324 44.852Z" fill="white"/>
</svg>
