<svg width="160" height="142" viewBox="0 0 160 142" fill="none" xmlns="http://www.w3.org/2000/svg">
<path d="M16.7324 131.238C16.7324 130.073 17.6766 129.129 18.8413 129.129H141.158C142.323 129.129 143.267 130.073 143.267 131.238V139.674C143.267 140.839 142.323 141.783 141.158 141.783H18.8413C17.6766 141.783 16.7324 140.839 16.7324 139.674V131.238Z" fill="white"/>
<path d="M53.3764 35.3973L77.305 1.68836L77.3073 1.68978C78.1091 0.606591 79.0071 0 79.9553 0C80.9202 0 81.8332 0.628159 82.6456 1.74748L82.647 1.74662L106.479 35.3191H106.478C106.702 35.6395 106.819 35.9696 106.819 36.3069C106.819 36.8147 106.553 37.3064 106.057 37.7732L84.751 57.9467L93.7246 63.1276V63.125C94.3545 63.4955 95.0886 63.7079 95.8722 63.7079C96.619 63.7079 97.3207 63.515 97.9302 63.1763L127.954 45.8418C128.324 45.6466 128.721 45.4894 129.142 45.3766C130.044 45.1349 130.953 45.1242 131.807 45.3082L155.901 51.7642C158.822 52.6066 160.559 55.6075 159.837 58.5597L159.771 58.8061L159.766 58.8229L144.669 115.165C143.46 118.464 140.309 120.694 136.75 120.694H23.2587C19.6678 120.694 16.4928 118.424 15.3077 115.076L0.158482 58.5387C-0.551356 55.5928 1.18666 52.6024 4.10458 51.7627L4.31053 51.7075L4.3226 51.7045L4.34796 51.6984L4.34774 51.6976L28.1126 45.3298C28.5225 45.2358 28.9494 45.1862 29.3878 45.1862C30.329 45.1862 31.2167 45.4149 31.9985 45.8197L62.2305 63.2742C62.7949 63.5519 63.43 63.7079 64.1015 63.7079C64.7814 63.7079 65.424 63.548 65.9936 63.2637L75.176 57.9622L53.7387 37.6642C53.3136 37.2301 53.0876 36.7754 53.0876 36.3069C53.0876 35.997 53.1865 35.6932 53.3764 35.3973Z" fill="white"/>
<path d="M129.806 44.7719L129.805 44.7718L129.805 44.7722L129.806 44.7719Z" fill="white"/>
<path d="M30.1863 44.7734L30.1842 44.774L30.1849 44.7726L30.1863 44.7734Z" fill="white"/>
<path d="M54.1663 72.2734C54.1663 71.6847 54.2644 71.3167 54.4606 71.1695C54.6569 70.9733 54.9757 70.8752 55.4173 70.8752C56.006 70.8752 56.423 71.0714 56.6683 71.4639C56.9627 71.8564 57.208 72.347 57.4042 72.9357C57.4042 73.5244 57.3797 74.432 57.3306 75.6585C57.3306 76.885 57.3306 78.2832 57.3306 79.8531C57.3306 81.374 57.3306 82.9929 57.3306 84.71C57.3306 86.4271 57.3306 88.0706 57.3306 89.6405C57.3306 91.2104 57.3306 92.6332 57.3306 93.9087C57.3797 95.1352 57.4042 96.0428 57.4042 96.6315C57.4042 96.8768 57.4287 97.3674 57.4778 98.1033C57.5269 98.8392 57.5759 99.6242 57.625 100.458C57.674 101.243 57.7231 102.004 57.7721 102.739C57.8703 103.475 57.9439 103.99 57.9929 104.285C58.042 104.432 58.1401 104.677 58.2873 105.021C58.4835 105.364 58.6307 105.56 58.7288 105.609C58.7288 105.659 58.7533 105.683 58.8024 105.683H58.9496C59.2439 105.683 59.7345 105.119 60.4214 103.99C61.1573 102.862 61.9668 101.415 62.8498 99.6487C63.782 97.8826 64.7877 95.9202 65.867 93.7615C66.9954 91.6029 68.0992 89.4688 69.1785 87.3592C70.3069 85.2497 71.3862 83.3118 72.4165 81.5457C73.4958 79.7795 74.477 78.3813 75.3601 77.3511C75.4091 77.3511 75.4582 77.3511 75.5072 77.3511C75.6054 77.3511 75.6789 77.3511 75.728 77.3511C76.1695 77.3511 76.4394 77.5473 76.5375 77.9398C76.6356 78.2832 76.6847 78.6511 76.6847 79.0436C76.6847 80.2701 76.3413 81.5211 75.6544 82.7967C74.9676 84.0722 74.2072 85.4704 73.3731 86.9913C72.5882 88.5121 71.8523 90.1311 71.1655 91.8482C70.4786 93.5653 70.1352 95.4786 70.1352 97.5882C70.1352 97.7354 70.1352 97.9807 70.1352 98.3241C70.1352 98.6185 70.1352 98.9619 70.1352 99.3543C70.1843 99.7468 70.2088 100.115 70.2088 100.458C70.2088 100.802 70.2088 101.047 70.2088 101.194C70.5522 102.421 71.239 103.426 72.2693 104.211C73.3486 104.996 74.5751 105.609 75.9488 106.051C77.3224 106.493 78.7697 106.811 80.2906 107.008C81.8605 107.204 83.2832 107.351 84.5588 107.449C85.8343 107.547 86.8891 107.67 87.7231 107.817C88.5571 107.964 88.9741 108.185 88.9741 108.479C88.9741 108.627 88.9496 108.749 88.9005 108.847C87.7231 109.289 86.5947 109.51 85.5154 109.51C84.4361 109.51 83.3077 109.51 82.1303 109.51C79.5301 109.51 77.396 109.363 75.728 109.068C74.109 108.774 72.7354 108.234 71.607 107.449C70.5277 106.615 69.5955 105.487 68.8106 104.064C68.0256 102.641 67.2161 100.802 66.3821 98.5449C65.7934 98.8883 65.3028 99.4279 64.9103 100.164C64.5179 100.9 64.1499 101.734 63.8065 102.666C63.5121 103.549 63.2178 104.481 62.9234 105.462C62.6781 106.443 62.3592 107.327 61.9668 108.112C61.5743 108.896 61.0837 109.559 60.495 110.098C59.9062 110.589 59.1949 110.834 58.3609 110.834C57.5759 110.834 56.9381 110.442 56.4475 109.657C55.9569 108.872 55.589 107.989 55.3437 107.008C55.0984 105.977 54.9267 105.021 54.8286 104.138C54.7795 103.206 54.755 102.617 54.755 102.372L54.1663 72.2734Z" fill="black"/>
<path d="M75.4371 102.91C76.438 104.036 77.4805 105.078 78.5647 106.037C79.6489 106.955 80.7957 107.768 82.005 108.477C83.2143 109.144 84.4862 109.665 85.8206 110.041C87.1968 110.416 88.6354 110.604 90.1367 110.604C92.0132 110.604 93.8897 110.27 95.7663 109.603C97.6428 108.894 99.3317 107.935 100.833 106.725C102.376 105.474 103.627 103.994 104.586 102.284C105.545 100.575 106.025 98.7189 106.025 96.7173C106.025 95.5914 105.754 94.6114 105.211 93.7774C104.669 92.9017 103.96 92.1719 103.085 91.5881C102.251 91.0043 101.292 90.5664 100.207 90.2745C99.1649 89.9409 98.1224 89.7741 97.0798 89.7741C96.5377 89.7741 95.8497 89.8575 95.0156 90.0243C94.2233 90.1494 93.3685 90.3371 92.4511 90.5873C91.5336 90.7958 90.5954 91.0669 89.6363 91.4005C88.6771 91.6924 87.7806 92.026 86.9466 92.4013C86.1125 92.7766 85.4036 93.1727 84.8198 93.5898C84.236 93.9651 83.819 94.3404 83.5688 94.7157C83.5688 94.9242 83.5271 95.2786 83.4437 95.779C83.402 96.2795 83.3394 96.8424 83.256 97.4679C83.2143 98.0517 83.1726 98.6147 83.1309 99.1568C83.0892 99.6572 83.0475 100.012 83.0058 100.22C83.0058 100.47 82.9641 100.783 82.8807 101.158C82.7973 101.492 82.6931 101.847 82.568 102.222C82.4846 102.555 82.3386 102.889 82.1301 103.223C81.9633 103.556 81.734 103.827 81.4421 104.036C80.8582 103.786 80.4412 103.389 80.191 102.847C79.9408 102.264 79.774 101.638 79.6906 100.971C79.6489 100.262 79.6489 99.5738 79.6906 98.9066C79.7323 98.1977 79.7532 97.6139 79.7532 97.1552C79.7532 96.7382 79.7532 96.0501 79.7532 95.091C79.7949 94.1319 79.8366 93.0059 79.8783 91.7132C79.9617 90.4205 80.0659 89.0235 80.191 87.5223C80.3578 85.9794 80.5663 84.4573 80.8165 82.9561C81.0667 81.4131 81.3795 79.9536 81.7548 78.5775C82.1301 77.1597 82.5888 75.9086 83.1309 74.8244C83.673 73.6985 84.2986 72.8228 85.0075 72.1973C85.7581 71.5301 86.5921 71.1964 87.5095 71.1964C88.5937 71.1964 89.5528 71.4467 90.3869 71.9471C91.2626 72.4475 91.9923 73.0938 92.5762 73.8861C93.2017 74.6368 93.6812 75.5125 94.0148 76.5133C94.3901 77.4724 94.5778 78.4524 94.5778 79.4532C94.5778 80.2455 94.4318 81.017 94.1399 81.7676C93.848 82.4765 93.5353 83.1646 93.2017 83.8318C92.9098 84.499 92.6179 85.1662 92.326 85.8334C92.034 86.5006 91.8881 87.1887 91.8881 87.8976C92.8889 87.8976 94.0148 87.9185 95.2659 87.9602C96.5169 88.0019 97.7887 88.1061 99.0815 88.2729C100.374 88.4397 101.625 88.7316 102.835 89.1486C104.086 89.5239 105.191 90.066 106.15 90.775C107.109 91.4422 107.859 92.297 108.402 93.3396C108.985 94.3821 109.277 95.6539 109.277 97.1552C109.277 98.6564 109.006 100.095 108.464 101.471C107.922 102.806 107.171 104.057 106.212 105.224C105.295 106.392 104.211 107.434 102.96 108.352C101.75 109.269 100.437 110.062 99.0189 110.729C97.6428 111.396 96.225 111.917 94.7654 112.293C93.3476 112.626 91.9715 112.793 90.6371 112.793C89.9282 112.793 89.0316 112.689 87.9474 112.48C86.9049 112.23 85.8206 111.917 84.6947 111.542C83.5688 111.125 82.4429 110.625 81.3169 110.041C80.2327 109.415 79.2528 108.769 78.377 108.102C77.5013 107.393 76.7924 106.621 76.2503 105.787C75.7082 104.953 75.4371 104.077 75.4371 103.16V102.91ZM88.2601 73.9487C87.718 73.9487 87.2385 74.2198 86.8214 74.7619C86.4044 75.304 86.0291 76.0129 85.6955 76.8886C85.4036 77.7226 85.1534 78.6609 84.9449 79.7034C84.7781 80.7042 84.6113 81.705 84.4445 82.7059C84.3194 83.665 84.236 84.5407 84.1943 85.333C84.1526 86.1253 84.1318 86.7091 84.1318 87.0844C84.1318 87.2095 84.1318 87.4389 84.1318 87.7725C84.1318 88.0644 84.1318 88.3772 84.1318 88.7108C84.1318 89.0444 84.1318 89.378 84.1318 89.7116C84.1318 90.0035 84.1318 90.212 84.1318 90.3371C85.1326 89.6699 86.0917 88.9401 87.0091 88.1478C87.9265 87.3555 88.7397 86.5215 89.4486 85.6458C90.1992 84.7283 90.783 83.7484 91.2 82.7059C91.6587 81.6216 91.8881 80.4332 91.8881 79.1404C91.8881 78.5566 91.8255 77.952 91.7004 77.3265C91.5753 76.7009 91.3668 76.138 91.0749 75.6376C90.8247 75.1372 90.4494 74.741 89.949 74.4491C89.4903 74.1155 88.9273 73.9487 88.2601 73.9487Z" fill="black"/>
</svg>
