<svg width="30" height="27" viewBox="0 0 30 27" fill="none" xmlns="http://www.w3.org/2000/svg">
<path d="M3.13745 24.6072C3.13745 24.3888 3.31449 24.2117 3.53287 24.2117H26.4673C26.6857 24.2117 26.8627 24.3888 26.8627 24.6072V26.1888C26.8627 26.4072 26.6857 26.5843 26.4673 26.5843H3.53287C3.31449 26.5843 3.13745 26.4072 3.13745 26.1888V24.6072Z" fill="white"/>
<path d="M10.0081 6.637L14.4947 0.316567L14.4951 0.316833C14.6454 0.113736 14.8138 0 14.9916 0C15.1725 0 15.3437 0.11778 15.4961 0.327653L15.4963 0.327491L19.9647 6.62233H19.9646C20.0066 6.68241 20.0286 6.74431 20.0286 6.80754C20.0286 6.90276 19.9788 6.99496 19.8856 7.08247L15.8908 10.865L17.5734 11.8364V11.8359C17.6915 11.9054 17.8291 11.9452 17.976 11.9452C18.1161 11.9452 18.2476 11.9091 18.3619 11.8456L23.9915 8.59534C24.0608 8.55873 24.1353 8.52926 24.2142 8.50811C24.3833 8.4628 24.5538 8.4608 24.7139 8.49529L29.2315 9.70579C29.7792 9.86374 30.1047 10.4264 29.9694 10.98L29.957 11.0261L29.9561 11.0293L27.1255 21.5935C26.8987 22.2121 26.308 22.63 25.6407 22.63H4.36101C3.68771 22.63 3.0924 22.2045 2.87019 21.5768L0.0297153 10.976C-0.103379 10.4236 0.222498 9.86296 0.769608 9.70551L0.808224 9.69516L0.810487 9.6946L0.815242 9.69344L0.815201 9.69329L5.27111 8.49933C5.34797 8.48172 5.42801 8.47242 5.51021 8.47242C5.68668 8.47242 5.85314 8.51529 5.99973 8.5912L11.6682 11.8639C11.774 11.916 11.8931 11.9452 12.019 11.9452C12.1465 11.9452 12.267 11.9152 12.3738 11.8619L14.0955 10.8679L10.076 7.06204C9.99629 6.98065 9.95393 6.89538 9.95393 6.80754C9.95393 6.74944 9.97246 6.69247 10.0081 6.637Z" fill="white"/>
<path d="M24.3386 8.39472L24.3385 8.3947L24.3385 8.39478L24.3386 8.39472Z" fill="white"/>
<path d="M5.65992 8.39501L5.65953 8.39512L5.65967 8.39487L5.65992 8.39501Z" fill="white"/>
</svg>
